<svg id="visual" viewBox="0 0 900 600" width="900" height="600" xmlns="http://www.w3.org/2000/svg" xmlns:xlink="http://www.w3.org/1999/xlink" version="1.1"><g transform="translate(965.6419738436902 -11.122198674139895)"><path d="M287.5 -378.7C383.4 -326.1 479.4 -256.5 490.6 -171.4C501.8 -86.2 428.3 14.5 388.3 122.7C348.4 230.8 342 346.4 282.9 412.8C223.8 479.3 111.9 496.6 22.9 465.2C-66.1 433.7 -132.3 353.4 -238.8 302.3C-345.3 251.3 -492.2 229.5 -566.1 149.2C-640.1 68.9 -641 -69.8 -574.4 -159.3C-507.7 -248.8 -373.5 -289 -266.5 -338.1C-159.5 -387.2 -79.7 -445.1 8 -456.1C95.8 -467.2 191.6 -431.4 287.5 -378.7" fill="#F5F6F6"></path></g></svg>