<svg xmlns="http://www.w3.org/2000/svg" viewBox="0 0 64 80" x="0px" y="0px"><path d="m47.12,16.55c1.3,1.3,3.01,1.95,4.71,1.95s3.41-.65,4.71-1.95c2.6-2.6,2.6-6.83,0-9.43h0c-.7-.7-1.54-1.23-2.48-1.56-.36-.13-.77-.04-1.04.24-.27.27-.36.68-.24,1.04.6,1.69.17,3.6-1.09,4.86-1.26,1.26-3.17,1.69-4.86,1.09-.36-.13-.77-.04-1.04.24-.27.27-.36.68-.24,1.04.34.94.86,1.78,1.56,2.48Zm5.99-3.43c1.25-1.25,1.93-2.93,1.94-4.65.03.02.05.05.08.08,1.82,1.82,1.82,4.78,0,6.6-1.82,1.82-4.78,1.82-6.6,0-.03-.03-.05-.05-.08-.08,1.72-.02,3.41-.7,4.65-1.94Z"/><path d="m12,8.5c-1.93,0-3.5,1.57-3.5,3.5s1.57,3.5,3.5,3.5,3.5-1.57,3.5-3.5-1.57-3.5-3.5-3.5Zm0,5c-.83,0-1.5-.67-1.5-1.5s.67-1.5,1.5-1.5,1.5.67,1.5,1.5-.67,1.5-1.5,1.5Z"/><rect x="11" y="5" width="2" height="2"/><rect x="11" y="17" width="2" height="2"/><rect x="17" y="11" width="2" height="2"/><rect x="5" y="11" width="2" height="2"/><rect x="15.24" y="6.76" width="2" height="2" transform="translate(-.73 13.76) rotate(-45)"/><rect x="6.76" y="15.24" width="2" height="2" transform="translate(-9.21 10.24) rotate(-45)"/><rect x="15.24" y="15.24" width="2" height="2" transform="translate(-6.73 16.24) rotate(-45)"/><rect x="6.76" y="6.76" width="2" height="2" transform="translate(-3.21 7.76) rotate(-45)"/><path d="m60,50c0-.55-.45-1-1-1h-8c-.55,0-1,.45-1,1v11h-5v-10c0-4.33-3.08-7.96-7.16-8.81,1.03-1.29,1.66-2.92,1.66-4.69,0-4.14-3.36-7.5-7.5-7.5s-7.5,3.36-7.5,7.5c0,1.78.62,3.41,1.66,4.69-4.08.85-7.16,4.48-7.16,8.81v10h-5v-11c0-.55-.45-1-1-1H5c-.55,0-1,.45-1,1v11H1v2h62v-2h-3v-11Zm-48,11h-6v-2h6v2Zm0-4h-6v-2h6v2Zm0-4h-6v-2h6v2Zm20-21c3.03,0,5.5,2.47,5.5,5.5s-2.47,5.5-5.5,5.5-5.5-2.47-5.5-5.5,2.47-5.5,5.5-5.5Zm4.18,29h-8.36l-1.6-8h11.56l-1.6,8Zm6.82,0h-4.78l1.52-7.61c.12-.59-.03-1.19-.41-1.66s-.95-.73-1.55-.73h-11.56c-.6,0-1.17.27-1.55.73s-.53,1.07-.41,1.66l1.52,7.61h-4.78v-10c0-3.86,3.14-7,7-7h.27c1.1.63,2.37,1,3.73,1s2.63-.37,3.73-1h.27c3.86,0,7,3.14,7,7v10Zm15,0h-6v-2h6v2Zm0-4h-6v-2h6v2Zm0-4h-6v-2h6v2Z"/><rect x="31" y="56" width="2" height="2"/><path d="m31.36,22.02l-1.71-1.03-.5.83c-.48.81-.48,1.89,0,2.7.11.18.11.46,0,.64l-.5.83,1.72,1.03.5-.83c.48-.81.48-1.89,0-2.7-.11-.18-.1-.46,0-.64l.5-.83Z"/><path d="m32.64,25.99l1.72,1.03.5-.83c.48-.81.48-1.89,0-2.7-.11-.18-.1-.46,0-.64l.5-.83-1.71-1.03-.5.83c-.48.81-.48,1.89,0,2.7.11.18.11.46,0,.64l-.5.83Z"/><path d="m2.91,23h18.18c1.05,0,1.91-.86,1.91-1.91V2.91c0-1.05-.86-1.91-1.91-1.91H2.91c-1.05,0-1.91.86-1.91,1.91v18.18c0,1.05.86,1.91,1.91,1.91Zm.09-20h18v18H3V3Z"/><path d="m61.09,1h-18.18c-1.05,0-1.91.86-1.91,1.91v18.18c0,1.05.86,1.91,1.91,1.91h18.18c1.05,0,1.91-.86,1.91-1.91V2.91c0-1.05-.86-1.91-1.91-1.91Zm-.09,20h-18V3h18v18Z"/><text x="0" y="79" fill="#000000" font-size="5px" font-weight="bold" font-family="'Helvetica Neue', Helvetica, Arial-Unicode, Arial, Sans-serif">Created by Kamin Ginkaew</text><text x="0" y="84" fill="#000000" font-size="5px" font-weight="bold" font-family="'Helvetica Neue', Helvetica, Arial-Unicode, Arial, Sans-serif">from the Noun Project</text></svg>