<svg xmlns:dc="http://purl.org/dc/elements/1.1/" xmlns:cc="http://creativecommons.org/ns#" xmlns:rdf="http://www.w3.org/1999/02/22-rdf-syntax-ns#" xmlns:svg="http://www.w3.org/2000/svg" xmlns="http://www.w3.org/2000/svg" xmlns:sodipodi="http://sodipodi.sourceforge.net/DTD/sodipodi-0.dtd" xmlns:inkscape="http://www.inkscape.org/namespaces/inkscape" viewBox="0 0 16.933333 21.166666250000002" version="1.1" x="0px" y="0px"><g style="opacity:1"><path style="color:#000000;font-style:normal;font-variant:normal;font-weight:normal;font-stretch:normal;font-size:medium;line-height:normal;font-family:sans-serif;font-variant-ligatures:normal;font-variant-position:normal;font-variant-caps:normal;font-variant-numeric:normal;font-variant-alternates:normal;font-feature-settings:normal;text-indent:0;text-align:start;text-decoration:none;text-decoration-line:none;text-decoration-style:solid;text-decoration-color:#000000;letter-spacing:normal;word-spacing:normal;text-transform:none;writing-mode:lr-tb;direction:ltr;text-orientation:mixed;dominant-baseline:auto;baseline-shift:baseline;text-anchor:start;white-space:normal;shape-padding:0;clip-rule:nonzero;display:inline;overflow:visible;visibility:visible;opacity:1;isolation:auto;mix-blend-mode:normal;color-interpolation:sRGB;color-interpolation-filters:linearRGB;solid-color:#000000;solid-opacity:1;vector-effect:none;fill:#000000;fill-opacity:1;fill-rule:nonzero;stroke:none;stroke-width:0.52916664;stroke-linecap:round;stroke-linejoin:round;stroke-miterlimit:4;stroke-dasharray:none;stroke-dashoffset:0;stroke-opacity:1;color-rendering:auto;image-rendering:auto;shape-rendering:auto;text-rendering:auto;enable-background:accumulate" d="M 2.3808839,1.0585919 C 2.2355707,1.0591728 2.1179151,1.1768284 2.1173341,1.3221417 v 0.081649 H 1.3225507 C 1.1770365,1.4043725 1.0592984,1.522342 1.0590009,1.667857 v 1.1911418 c 0,0.7067846 0.5090033,1.2971493 1.1802896,1.4273029 0.2017234,0.6268582 0.6417636,1.1386815 1.2102619,1.4081829 V 6.4313904 H 3.1761841 c -0.00912,-4.762e-4 -0.018264,-4.762e-4 -0.027388,0 -0.1355498,0.013314 -0.2388518,0.1273479 -0.2387452,0.2635499 v 1.05885 c 5.818e-4,0.1463225 0.119812,0.2643934 0.2661332,0.2635496 H 5.5569174 C 5.7022305,8.0167578 5.8198862,7.8991035 5.8204672,7.7537903 v -1.05885 C 5.8198852,6.5496269 5.7022308,6.4319714 5.5569174,6.4313904 H 5.3047364 V 5.682599 C 5.8623161,5.4102229 6.294028,4.904525 6.4932944,4.2863017 7.1645807,4.1561481 7.6741007,3.5657834 7.6741007,2.8589988 V 1.667857 C 7.6738015,1.5215352 7.5548049,1.4032333 7.4084839,1.4037904 H 6.6152507 V 1.3221417 C 6.6146665,1.176022 6.4957537,1.0580346 6.3496339,1.0585919 Z m 10.0546831,0 c -0.581368,0 -1.058333,0.4769658 -1.058333,1.0583333 0,0.5813676 0.476965,1.05885 1.058333,1.05885 0.581367,0 1.05885,-0.4774824 1.05885,-1.05885 0,-0.5813675 -0.477483,-1.0583333 -1.05885,-1.0583333 z M 2.6465007,1.5877585 H 6.086084 v 1.929598 c 0,1.0409504 -0.7731175,1.8551839 -1.7208251,1.8551839 -0.9477068,0 -1.7187582,-0.8142338 -1.7187582,-1.8551839 z m 9.7890663,0 c 0.295384,10e-8 0.529684,0.2337821 0.529684,0.5291667 0,0.2953846 -0.2343,0.5291666 -0.529684,0.5291666 -0.295385,0 -0.529166,-0.233782 -0.529166,-0.5291666 0,-0.2953846 0.233781,-0.5291666 0.529166,-0.5291667 z m -2.6980264,0.00155 C 9.6852486,1.5923385 9.6328177,1.6010454 9.5804443,1.6151467 9.1614578,1.7279588 8.9100237,2.1642761 9.0218221,2.5835634 l 0.2733683,1.021643 c 0.00622,0.022651 0.015433,0.044375 0.027389,0.064596 0.094575,0.1625718 0.2459614,0.324064 0.4356322,0.5157305 0.189671,0.1916668 0.4135074,0.3990925 0.6289024,0.5937623 0.380883,0.3442356 0.655172,0.5733261 0.732255,0.6382038 v 1.2014772 c 0,0.340574 0.221128,0.6321729 0.525549,0.7431071 v 1.8975582 h -0.795301 c -0.146119,5.82e-4 -0.264106,0.1194972 -0.263549,0.2656169 V 11.376825 H 7.4007324 c -0.1463217,2.91e-4 -0.2646238,0.119296 -0.2640666,0.265617 v 1.585949 H 3.9533977 c -0.1469276,-5.55e-4 -0.266177,0.11869 -0.2656168,0.265617 v 2.117184 c 5.82e-4,0.146119 0.1194969,0.264107 0.2656168,0.263549 3.4485405,0 6.8970813,0 10.3456223,0 0.145313,-5.82e-4 0.262968,-0.118236 0.263549,-0.263549 V 9.5252584 C 14.563125,9.3791387 14.445139,9.2602259 14.29902,9.2596415 H 13.226733 V 7.3620829 c 0.304248,-0.1110276 0.52555,-0.4026572 0.52555,-0.7431071 V 5.4174986 c 0.07708,-0.064878 0.351371,-0.2939682 0.732255,-0.6382038 0.215395,-0.1946698 0.439231,-0.4020955 0.628902,-0.5937623 0.189671,-0.1916665 0.341058,-0.3531587 0.435632,-0.5157305 0.01196,-0.02022 0.02117,-0.041944 0.02739,-0.064596 L 15.847763,2.583563 C 15.959561,2.1642756 15.708126,1.7279593 15.28914,1.615147 14.870152,1.5023362 14.434078,1.7560258 14.322274,2.1753195 L 14.08818,3.0543357 13.461345,3.6403465 c -0.01454,-0.0094 -0.01181,-0.010067 -0.02739,-0.019637 -0.122416,-0.075125 -0.255307,-0.1715659 -0.472839,-0.1715659 h -1.050582 c -0.217532,0 -0.350424,0.096441 -0.472839,0.1715659 -0.01559,0.00957 -0.01285,0.010239 -0.02739,0.019637 L 10.783471,3.0543357 10.548861,2.1753195 C 10.451029,1.8084395 10.103586,1.5680971 9.7375406,1.5893085 Z M 1.5881675,1.9334739 h 0.5291666 v 1.5838826 c 0,0.061483 0.00445,0.1220372 0.00879,0.1824178 C 1.8068445,3.554586 1.5881675,3.2362235 1.5881675,2.8589988 Z m 5.0270832,0 h 0.5296834 v 0.9255249 c 0,0.3773977 -0.2189544,0.6956801 -0.5384684,0.8407755 0.00434,-0.060381 0.00878,-0.120935 0.00878,-0.1824178 z m 3.2085896,0.1834513 c 0.1006067,0.012525 0.1842207,0.083755 0.2134237,0.1932698 l 0.253731,0.9534303 c 0.01329,0.04787 0.0398,0.09103 0.07648,0.1245402 L 11.203084,4.17158 c 0.09542,0.09025 0.242599,0.09685 0.345715,0.015502 0,0 0.07363,-0.058311 0.166398,-0.1152385 0.09276,-0.056927 0.222458,-0.093534 0.195337,-0.093534 H 12.16995 V 5.290891 c 0.0077,0.3450344 0.521508,0.3450344 0.529166,0 V 3.978309 h 0.262 c -0.02712,0 0.102574,0.036608 0.195336,0.093534 0.09276,0.056927 0.165882,0.1152385 0.165882,0.1152385 0.103116,0.081347 0.250294,0.074747 0.345715,-0.015502 L 14.504174,3.388165 c 0.03573,-0.033834 0.06132,-0.076963 0.0739,-0.1245402 l 0.254248,-0.9534303 c 0.03894,-0.1460175 0.176792,-0.2241824 0.320394,-0.1855184 0.143597,0.038664 0.224454,0.1785048 0.185518,0.324528 l -0.259932,0.9725505 c -0.04094,0.064549 -0.169091,0.2179349 -0.340031,0.3906736 -0.178282,0.180158 -0.396226,0.3834533 -0.607198,0.5741252 -0.421942,0.381344 -0.814421,0.7090008 -0.814421,0.7090008 -0.05985,0.050453 -0.09428,0.1248135 -0.09405,0.2030883 v 1.3203328 c 0,0.1513078 -0.112957,0.2635498 -0.261482,0.2635498 -0.14612,5.821e-4 -0.264107,0.119497 -0.26355,0.2656168 V 9.2596415 H 12.174085 V 7.1481424 c 5.55e-4,-0.1461198 -0.117431,-0.2650326 -0.26355,-0.2656168 -0.148527,0 -0.262,-0.1122415 -0.262,-0.2635498 V 5.298643 c 3.71e-4,-0.078191 -0.03388,-0.1525367 -0.09353,-0.2030883 0,0 -0.392478,-0.3276568 -0.814421,-0.7090008 C 10.529609,4.195882 10.311148,3.9925867 10.132865,3.8124287 9.9619258,3.63969 9.8342873,3.4863042 9.7933513,3.4217551 L 9.5334188,2.4492046 c -0.038936,-0.1460237 0.041921,-0.2858644 0.1855184,-0.324528 0.0359,-0.00967 0.071368,-0.011926 0.1049031,-0.00775 z M 4.3569907,2.2538677 4.1301311,2.7267072 3.6097494,2.8119731 3.9926719,3.1716411 3.913607,3.6894388 4.3766278,3.4393251 4.8484336,3.6739361 4.7517985,3.1592387 5.1223186,2.7866517 4.599353,2.7189557 Z m 0.418579,3.6064982 V 6.4313904 H 3.9766522 V 5.863983 c 0.1263314,0.023334 0.2556462,0.038241 0.3886067,0.038241 0.1405306,0 0.2771987,-0.015856 0.4103108,-0.041858 z M 3.439734,6.9605571 H 5.2913006 V 7.4897237 H 3.439734 Z m 4.7087564,0.661975 C 7.7953683,7.6187433 7.789684,8.1484259 8.1428072,8.1522155 L 8.4740531,8.1713369 7.5035696,9.3960683 C 7.3636633,9.3113786 7.201828,9.2596425 7.0276297,9.2596425 c -0.3952761,0 -0.733558,0.2528379 -0.8660971,0.6035809 L 4.4784313,9.4436104 C 4.3802703,9.0371332 4.0131178,8.7299591 3.578228,8.7299591 c -0.5088956,0 -0.9275921,0.4194247 -0.9275921,0.9281083 0,0.214838 0.077406,0.4107986 0.2020549,0.5684406 l -0.8888346,1.54926 c -0.4983241,0.01249 -0.9048549,0.422036 -0.9048543,0.922941 2e-7,0.508684 0.4186966,0.928109 0.9275919,0.928109 0.5088955,0 0.9275917,-0.419425 0.927592,-0.928109 2e-7,-0.323993 -0.1704269,-0.609568 -0.4252971,-0.775146 l 0.7984008,-1.39113 c 0.092133,0.0309 0.1889178,0.05116 0.2909385,0.05116 0.3951463,0 0.7334645,-0.252502 0.8660969,-0.6030636 L 6.127943,10.400142 c 0.098401,0.406148 0.4650322,0.713134 0.8996867,0.713134 0.5088954,0 0.9275916,-0.419424 0.9275919,-0.928108 2e-7,-0.140402 -0.034566,-0.2721046 -0.091467,-0.3917076 L 8.8993501,8.4844959 9.0099375,8.8141916 C 9.1274046,9.1374955 9.6125369,8.9751186 9.5117158,8.6462434 L 9.2760713,7.9429269 c 0.00241,-0.128271 -0.087549,-0.2397889 -0.2134238,-0.2645833 -0.025429,-0.00679 -0.051729,-0.00976 -0.078031,-0.00878 -0.00518,3.704e-4 -0.01035,8.731e-4 -0.015502,0.00156 L 8.1738137,7.6225446 c -0.00843,-3.969e-4 -0.016886,-3.969e-4 -0.025321,0 z M 3.578227,9.2596415 c 0.2236692,0 0.3984252,0.1764829 0.3984252,0.3984249 0,0.221943 -0.174756,0.3963566 -0.3984252,0.3963586 -0.2236695,-2e-6 -0.3984255,-0.1744156 -0.3984255,-0.3963586 0,-0.221942 0.174756,-0.3984249 0.3984255,-0.3984249 z m 3.4494017,0.5291669 c 0.2236695,0 0.3984254,0.174415 0.3984252,0.3963576 0,0.221942 -0.174756,0.398425 -0.3984252,0.398425 -0.2236692,0 -0.3984252,-0.176483 -0.3984252,-0.398425 -3e-7,-0.2219426 0.1747557,-0.3963576 0.3984252,-0.3963576 z m 4.0860553,0 h 2.919719 v 5.5567666 h -2.919719 c 0,-1.852256 0,-3.704511 0,-5.5567666 z M 7.6663492,11.905992 h 2.9197188 v 3.439583 H 7.6663492 c 0,-1.146528 0,-2.293056 0,-3.439583 z M 1.9865928,12.30235 c 0.2236695,0 0.3984255,0.174415 0.3984252,0.396358 -1e-7,0.221942 -0.174756,0.398942 -0.3984252,0.398942 -0.2236692,0 -0.3984252,-0.177 -0.3984253,-0.398942 -2e-7,-0.221943 0.1747558,-0.396358 0.3984253,-0.396358 z m 2.2303547,1.455208 h 2.9197183 v 1.588017 H 4.2169475 Z"/></g><text x="0" y="31.933333" fill="#000000" font-size="5px" font-weight="bold" font-family="'Helvetica Neue', Helvetica, Arial-Unicode, Arial, Sans-serif">Created by Aficons</text><text x="0" y="36.933333000000005" fill="#000000" font-size="5px" font-weight="bold" font-family="'Helvetica Neue', Helvetica, Arial-Unicode, Arial, Sans-serif">from the Noun Project</text></svg>